<svg width="24" height="24" viewBox="0 0 24 24" fill="none" xmlns="http://www.w3.org/2000/svg">
<path d="M10.2542 10.47L9.88423 2.08801L11.8172 2.60601L14.6272 11.641L19.8882 13.051C20.0785 13.102 20.2569 13.1899 20.4132 13.3098C20.5695 13.4297 20.7007 13.5792 20.7992 13.7498C20.8977 13.9204 20.9617 14.1087 20.9874 14.304C21.0132 14.4993 21.0002 14.6977 20.9492 14.888C20.8983 15.0783 20.8103 15.2567 20.6904 15.413C20.5706 15.5693 20.4211 15.7004 20.2505 15.799C20.0799 15.8975 19.8916 15.9615 19.6963 15.9872C19.501 16.0129 19.3025 16 19.1122 15.949L4.14023 11.937L4.91623 9.03901L5.15823 9.10401L6.07223 12.454L3.44523 11.751C3.22996 11.6931 3.04023 11.5649 2.90615 11.3868C2.77208 11.2087 2.70136 10.9909 2.70523 10.768L2.79523 5.36501L4.24423 5.75301L5.15823 9.10401L10.2542 10.47ZM4.00023 19H20.0002V21H4.00023V19Z" fill="black"/>
</svg>
