<svg width="93" height="32" viewBox="0 0 93 32" fill="none" xmlns="http://www.w3.org/2000/svg">
<path d="M0.666504 13.5H92.6665V17.5H0.666504V13.5Z" fill="#F0F0F0"/>
<rect x="30.6665" width="32" height="32" rx="16" fill="#F0F0F0"/>
<path d="M50.7898 17.1053L47 23H45.5L47.3945 17.1053H43.3745L42.125 19.3158H41L41.75 16L41 12.6842H42.125L43.3752 14.8947H47.3953L45.5 9H47L50.7898 14.8947H54.875C55.1734 14.8947 55.4595 15.0112 55.6705 15.2185C55.8815 15.4257 56 15.7069 56 16C56 16.2931 55.8815 16.5743 55.6705 16.7815C55.4595 16.9888 55.1734 17.1053 54.875 17.1053H50.7898Z" fill="#A0A0A0"/>
</svg>
