<svg width="254" height="56" viewBox="0 0 254 56" fill="none" xmlns="http://www.w3.org/2000/svg">
<path d="M53.2304 26.8266C53.0841 26.4745 52.837 26.1736 52.5201 25.9614C52.2034 25.7492 51.8306 25.6354 51.4494 25.6343C50.152 25.861 48.8787 26.2084 47.6461 26.6723C47.5741 26.6999 47.4957 26.7076 47.4195 26.6942C47.3431 26.6816 47.2703 26.6521 47.2068 26.6077C47.1438 26.5631 47.0925 26.504 47.0574 26.4348C47.023 26.3651 47.005 26.2882 47.0042 26.2102C47.006 26.1348 46.9918 26.0597 46.9629 25.9898C46.934 25.9198 46.8909 25.8568 46.8364 25.8044C46.784 25.7502 46.7213 25.7071 46.6519 25.678C46.5824 25.6488 46.5078 25.6338 46.4324 25.6343H44.6862C44.5079 24.0298 44.1023 22.4589 43.4818 20.9687C42.8677 19.4765 42.0423 18.0803 41.0304 16.8232L42.2681 15.5912C42.3223 15.5378 42.3657 15.474 42.3951 15.4035C42.4245 15.3331 42.4398 15.2577 42.4398 15.1813C42.4398 15.1052 42.4245 15.0295 42.3951 14.9593C42.3657 14.8888 42.3223 14.8251 42.2681 14.7717C42.2222 14.7262 42.186 14.6723 42.1618 14.6124C42.1375 14.5528 42.1254 14.489 42.1264 14.4245C42.1228 14.3334 42.1465 14.2435 42.1945 14.1661C42.2428 14.0889 42.313 14.0277 42.3964 13.9908C43.821 13.2825 45.4216 12.4403 45.8176 12.042C45.9921 11.8628 46.1294 11.6507 46.2216 11.4181C46.3168 11.1858 46.3648 10.9369 46.3633 10.6858C46.3615 10.4349 46.3098 10.1868 46.2115 9.95581C46.117 9.72427 45.9769 9.5139 45.7998 9.33734C45.5334 9.06889 45.194 8.88485 44.8236 8.80767C44.4531 8.73075 44.0685 8.76405 43.717 8.90369C43.4836 8.99739 43.2699 9.13446 43.0879 9.30766C42.6904 9.70569 41.8523 11.3081 41.1393 12.7343C41.1027 12.8011 41.0521 12.8595 40.9914 12.9057C40.9284 12.9514 40.8556 12.9816 40.7787 12.9942C40.7036 13.0061 40.6267 12.9999 40.5542 12.9764C40.4819 12.9516 40.4161 12.9106 40.3616 12.8566C40.3079 12.8029 40.2439 12.7603 40.1734 12.7317C40.103 12.7033 40.0273 12.6891 39.9514 12.6904C39.8745 12.6891 39.7984 12.703 39.7274 12.7317C39.6561 12.7603 39.5914 12.8029 39.5369 12.8566L38.3049 14.0936C37.0431 13.0858 35.6464 12.2598 34.1552 11.6403C32.6646 11.0201 31.0931 10.6145 29.4883 10.4362V8.69487C29.4888 8.61898 29.4744 8.54361 29.4457 8.47314C29.4171 8.40293 29.375 8.33892 29.3216 8.28471C29.2679 8.23076 29.2044 8.18791 29.1344 8.15875C29.0642 8.12932 28.9891 8.11409 28.913 8.11383H28.9096C28.8342 8.11512 28.7596 8.09757 28.6928 8.06298C28.6234 8.02813 28.5632 7.97728 28.517 7.91482C28.4734 7.85338 28.445 7.78266 28.4342 7.70806C28.4225 7.63114 28.4285 7.55267 28.452 7.47859C28.9184 6.24681 29.2661 4.97348 29.4904 3.67563C29.4907 3.42318 29.4411 3.17306 29.3446 2.93971C29.2467 2.70611 29.1042 2.49393 28.9251 2.31479C28.701 2.09074 28.4254 1.92528 28.1221 1.83313C27.8188 1.74103 27.4974 1.7252 27.1866 1.78692C26.8758 1.84887 26.5849 1.9862 26.34 2.18728C26.095 2.38836 25.9035 2.647 25.7822 2.93971C25.6859 3.17306 25.6363 3.42318 25.6363 3.67563C25.8606 4.97348 26.2086 6.24681 26.675 7.47859C26.698 7.55267 26.7042 7.63114 26.6926 7.70806C26.6799 7.78317 26.6495 7.85416 26.6035 7.91482C26.5602 7.97832 26.501 8.02942 26.4319 8.06298C26.3635 8.09705 26.2881 8.11461 26.2117 8.11383C26.1355 8.11409 26.0604 8.12932 25.9905 8.15875C25.9203 8.18791 25.8568 8.23076 25.8033 8.28471C25.7499 8.33892 25.7076 8.40293 25.6789 8.47314C25.6503 8.54361 25.6358 8.61898 25.6363 8.69487V10.439C24.0316 10.6174 22.4604 11.0229 20.9694 11.6432C19.4971 12.2469 18.1187 13.058 16.8758 14.0517L15.6317 12.8099C15.5191 12.6974 15.3356 12.6896 15.1763 12.6896C15.0999 12.6881 15.0243 12.702 14.9538 12.7309C14.8831 12.7598 14.8193 12.8029 14.7659 12.8574C14.7135 12.9142 14.6472 12.9557 14.5733 12.9787C14.4993 13.0045 14.4198 13.0118 14.3423 12.9991C14.2667 12.9862 14.1952 12.9557 14.1332 12.9106C14.071 12.8649 14.0212 12.8047 13.9882 12.7348C13.2796 11.3089 12.4386 9.70646 12.0411 9.30843C11.8612 9.12852 11.6472 8.98604 11.4121 8.88898C11.1782 8.79296 10.9278 8.74495 10.6751 8.74727C10.2928 8.74624 9.91908 8.85904 9.60107 9.07122C9.28306 9.2834 9.03552 9.5854 8.88993 9.93878C8.79159 10.1721 8.74126 10.423 8.74177 10.6762C8.74229 10.9287 8.79236 11.1786 8.88993 11.4116C8.98441 11.6468 9.12715 11.8595 9.30913 12.0358C9.70587 12.4338 11.3021 13.2732 12.7326 13.9846C12.8013 14.0184 12.8609 14.0685 12.9061 14.1305C12.9521 14.1935 12.9823 14.2662 12.9949 14.3429C13.0073 14.4191 13.0014 14.4973 12.9771 14.5703C12.9531 14.6439 12.9128 14.7113 12.8589 14.7668C12.8039 14.8191 12.7603 14.8827 12.7314 14.9529C12.7022 15.0231 12.6877 15.0987 12.6895 15.1746C12.6877 15.2513 12.7019 15.3274 12.7311 15.3981C12.7603 15.4691 12.8036 15.5331 12.8589 15.5863L14.0943 16.8217C13.0845 18.0803 12.2592 19.4762 11.6431 20.9674C11.0251 22.4586 10.6196 24.0291 10.4387 25.633H8.69273C8.6171 25.6323 8.54224 25.6472 8.47255 25.6764C8.4026 25.7056 8.33961 25.7487 8.28695 25.8029C8.2312 25.8548 8.18732 25.9178 8.15737 25.9877C8.12743 26.0577 8.11246 26.1328 8.11323 26.2089C8.1153 26.3377 8.06651 26.4624 7.9772 26.5553C7.93281 26.601 7.87937 26.6372 7.82026 26.6614C7.76141 26.6857 7.69817 26.6978 7.63441 26.697C7.58072 26.6963 7.52755 26.6867 7.47696 26.6686C6.24596 26.2045 4.97366 25.8571 3.67735 25.6307C3.42362 25.6302 3.17246 25.6805 2.9386 25.7789C2.70396 25.8759 2.49127 26.0184 2.31213 26.1983C2.13247 26.3762 1.99102 26.5886 1.89629 26.823C1.75097 27.1748 1.71276 27.5618 1.78685 27.9353C1.86067 28.3085 2.04368 28.6518 2.31213 28.9213C2.49127 29.1012 2.70396 29.2437 2.93834 29.341C3.17246 29.4383 3.42387 29.4882 3.67735 29.4882C4.97392 29.2623 6.24596 28.9149 7.47696 28.4502C7.55001 28.4262 7.62796 28.4203 7.70385 28.4327C7.78051 28.4427 7.85356 28.4717 7.91629 28.5168C7.9785 28.563 8.02909 28.6229 8.06445 28.6918C8.09852 28.7605 8.11607 28.8361 8.11556 28.9128C8.11478 28.9889 8.12976 29.0643 8.1597 29.134C8.18938 29.204 8.23352 29.2669 8.28902 29.3188C8.34167 29.373 8.40492 29.4159 8.47461 29.445C8.54431 29.4742 8.61942 29.4889 8.69505 29.4882H10.4371C10.7985 32.7121 12.0641 35.7681 14.0881 38.3036L12.8589 39.5419C12.8039 39.5948 12.7605 39.6583 12.7308 39.7288C12.7014 39.799 12.6867 39.8746 12.6872 39.9507C12.6859 40.0269 12.7006 40.1028 12.7301 40.173C12.7597 40.2435 12.8034 40.307 12.8589 40.3594C12.9128 40.4146 12.9531 40.4814 12.9771 40.555C13.0014 40.6278 13.0073 40.7052 12.9949 40.7809C12.9833 40.8573 12.9541 40.9301 12.9097 40.9936C12.8622 41.0545 12.8016 41.1043 12.7326 41.1394C11.3021 41.8477 9.70587 42.6902 9.30913 43.0875C9.12715 43.264 8.98415 43.477 8.88993 43.7124C8.78926 43.9463 8.73841 44.1982 8.74022 44.4527C8.73867 44.7057 8.78797 44.9566 8.88555 45.1902C8.9826 45.4256 9.12535 45.6393 9.30578 45.8192C9.6687 46.1816 10.1604 46.385 10.6733 46.385C11.1862 46.385 11.6782 46.1816 12.0411 45.8192C12.4386 45.4209 13.2768 43.8229 13.9882 42.3926C14.0209 42.3227 14.071 42.2623 14.1332 42.2168C14.1949 42.1709 14.2667 42.1407 14.3423 42.1283C14.4198 42.1156 14.4993 42.1224 14.5733 42.1482C14.6469 42.1714 14.7135 42.2135 14.7659 42.27C14.8188 42.3252 14.8826 42.3691 14.9533 42.3985C15.0238 42.428 15.0997 42.4427 15.1763 42.4414C15.2522 42.4427 15.3273 42.428 15.3973 42.3985C15.4672 42.3689 15.5302 42.3252 15.5821 42.27L16.8198 41.0325C19.3536 43.0604 22.4108 44.328 25.6363 44.6879V46.4325C25.6358 46.5087 25.6503 46.5838 25.6792 46.654C25.7078 46.7245 25.7502 46.7882 25.8036 46.8422C25.857 46.8961 25.9205 46.939 25.9905 46.9681C26.0607 46.9976 26.1358 47.0125 26.2117 47.0128C26.2754 47.0112 26.3389 47.0229 26.3981 47.0474C26.4572 47.0716 26.5106 47.1083 26.5545 47.1545C26.6007 47.1981 26.6373 47.2508 26.6629 47.3089C26.6882 47.3669 26.7019 47.4297 26.7026 47.4932C26.6983 47.5456 26.689 47.5974 26.675 47.6483C26.2091 48.8801 25.8612 50.1534 25.6363 51.451C25.6361 51.704 25.6856 51.9543 25.7824 52.1879C25.879 52.4215 26.0207 52.6337 26.1996 52.8126C26.3769 52.9928 26.5896 53.1345 26.8245 53.2284C27.2968 53.4238 27.8278 53.4238 28.3002 53.2284C28.5358 53.135 28.7496 52.9933 28.9272 52.8126C29.106 52.6337 29.2478 52.4215 29.3446 52.1879C29.4411 51.9543 29.4907 51.704 29.4904 51.451C29.2658 50.1524 28.9181 48.8783 28.452 47.6455C28.4287 47.5729 28.4225 47.4963 28.4339 47.4211C28.4452 47.346 28.4736 47.2743 28.517 47.2118C28.5619 47.1483 28.6223 47.0977 28.6928 47.0647C28.7596 47.0296 28.834 47.0118 28.9096 47.0128C29.0632 47.012 29.2103 46.9506 29.319 46.8419C29.4279 46.7332 29.4894 46.5864 29.4904 46.4325V44.6879C32.7157 44.3298 35.7729 43.064 38.3069 41.0374L39.5369 42.2708C39.5901 42.3252 39.6538 42.3683 39.7243 42.397C39.7948 42.4259 39.8701 42.4401 39.9463 42.4386C40.0229 42.4398 40.0988 42.4256 40.1698 42.3967C40.2405 42.3681 40.3048 42.325 40.3588 42.2708C40.4106 42.2132 40.4772 42.1711 40.5513 42.1489C40.6241 42.1231 40.7021 42.1164 40.7782 42.1291C40.8551 42.1404 40.9282 42.1709 40.9907 42.2176C41.0534 42.2635 41.1042 42.3237 41.1388 42.3934C41.8515 43.8237 42.6896 45.4217 43.0871 45.82C43.2665 46.0017 43.4805 46.1463 43.7162 46.2449C43.9498 46.3486 44.2017 46.4036 44.4573 46.4072C44.7138 46.4093 44.9684 46.3613 45.2061 46.2655C45.4431 46.1664 45.6581 46.0216 45.8388 45.8394C46.0194 45.6569 46.1622 45.4405 46.259 45.2028C46.3558 44.9664 46.4046 44.7132 46.4025 44.4579C46.4004 44.2023 46.3475 43.9499 46.2469 43.7152C46.1446 43.4811 45.998 43.2689 45.8155 43.0903C45.4193 42.6931 43.8189 41.8529 42.3941 41.1422C42.3252 41.1071 42.2648 41.0573 42.217 40.9964C42.1729 40.9329 42.1437 40.8601 42.1321 40.7837C42.1184 40.7081 42.1246 40.6304 42.1496 40.5579C42.1736 40.4843 42.2142 40.4174 42.2681 40.3622C42.3763 40.2535 42.4377 40.1069 42.4395 39.9536C42.4537 39.7948 42.4444 39.5992 42.3262 39.4859L41.0841 38.244C42.0768 37.006 42.885 35.631 43.4839 34.1615C44.1018 32.6701 44.5073 31.0994 44.6883 29.4951H46.4304C46.5058 29.4959 46.5804 29.4812 46.6498 29.452C46.7192 29.4228 46.7819 29.38 46.8344 29.3258C46.8888 29.2734 46.9317 29.2104 46.9606 29.1405C46.9895 29.0705 47.0037 28.9956 47.0021 28.92C47.0019 28.8557 47.0143 28.7922 47.0385 28.7329C47.0628 28.6732 47.0987 28.6193 47.1438 28.5736C47.189 28.5282 47.2427 28.4918 47.3021 28.467C47.3612 28.4422 47.4247 28.4293 47.4889 28.4291C47.5413 28.4296 47.5935 28.4391 47.6425 28.4575C48.8751 28.9216 50.1484 29.269 51.4458 29.4951C51.763 29.4959 52.0756 29.4179 52.3556 29.2687C52.6355 29.1193 52.8742 28.9032 53.0505 28.6394C53.2268 28.3756 53.3352 28.0723 53.3659 27.7566C53.3967 27.4407 53.3489 27.1224 53.2271 26.8295L53.2304 26.8266ZM27.5635 41.5532C19.8368 41.5532 13.5723 35.29 13.5723 27.5628C13.5723 19.8353 19.8368 13.5737 27.5635 13.5737C35.2902 13.5737 41.5547 19.8368 41.5547 27.5633C41.5547 35.29 35.2902 41.5532 27.5635 41.5532Z" fill="white"/>
<path fill-rule="evenodd" clip-rule="evenodd" d="M34.0815 34.4475C32.7044 35.8132 30.9162 36.6944 28.9895 36.9574C27.0626 37.2207 25.1021 36.8513 23.4055 35.9052C21.7091 34.9594 20.3692 33.4887 19.5898 31.7166C18.8104 29.9445 18.6338 27.9679 19.0868 26.0868C19.5398 24.206 20.598 22.5234 22.1002 21.2947C23.6023 20.0663 25.4668 19.3589 27.41 19.28C29.3534 19.2012 31.2695 19.7552 32.8674 20.8579C34.4654 21.9609 35.6576 23.552 36.2633 25.39H38.1206C37.6327 23.583 36.673 21.9363 35.3389 20.6166C33.8195 19.1094 31.7539 18.0501 29.5511 17.6638V15.8295H28.2056V17.4953C28.0508 17.491 27.9018 17.4852 27.7491 17.4852C27.4704 17.4852 27.1988 17.4953 26.9272 17.5156V15.8295H25.5609V17.6643C23.5028 18.1001 21.5846 19.1893 20.1514 20.6079C19.1533 21.5971 18.3617 22.7726 17.8211 24.0666C17.2809 25.3609 17.0029 26.7483 17.0029 28.1497C17.0029 29.5508 17.2809 30.9382 17.8211 32.2325C18.3617 33.5268 19.1533 34.702 20.1514 35.6912C21.5825 37.1122 23.5063 38.2144 25.5647 38.653V40.4682H26.9256V38.7821C27.1972 38.8033 27.4696 38.8126 27.747 38.8126C27.8994 38.8126 28.0492 38.8083 28.2032 38.8033V40.4688H29.5519V38.6536C31.7547 38.2615 33.8208 37.2013 35.3403 35.6983C36.6746 34.3792 37.6343 32.7323 38.1222 30.925H36.2633C35.8244 32.2534 35.0769 33.4601 34.0815 34.4475Z" fill="white"/>
<path d="M243.449 34.6023V21.7486H245.534V23.3258H245.914C246.149 22.7649 246.51 22.3533 246.996 22.0904C247.483 21.8275 248.125 21.696 248.917 21.696H250.489V23.5887H248.783C247.827 23.5887 247.051 23.8514 246.455 24.3772C245.878 24.8855 245.589 25.6827 245.589 26.7691V34.6023H243.449Z" fill="white"/>
<path d="M234.284 34.6023C233.073 34.6023 232.01 34.3443 231.093 33.8285C230.176 33.2958 229.465 32.5553 228.957 31.6065C228.449 30.658 228.196 29.5596 228.196 28.3114V28.0118C228.196 26.747 228.449 25.6403 228.957 24.6917C229.465 23.7432 230.168 23.0108 231.068 22.495C231.967 21.9623 232.998 21.696 234.16 21.696C235.29 21.696 236.289 21.9457 237.156 22.4451C238.023 22.9275 238.702 23.6267 239.193 24.5419C239.684 25.4572 239.929 26.5306 239.929 27.7621V28.661H230.136C230.183 29.9758 230.602 31.0075 231.388 31.7563C232.173 32.4888 233.154 32.8547 234.334 32.8547C235.365 32.8547 236.158 32.6136 236.715 32.1309C237.27 31.6481 237.696 31.0741 237.991 30.4083L239.659 31.2323C239.414 31.748 239.072 32.264 238.628 32.7801C238.204 33.2958 237.639 33.7286 236.936 34.0779C236.247 34.4275 235.365 34.6023 234.284 34.6023ZM230.161 27.0383H237.966C237.9 25.9066 237.516 25.0247 236.812 24.3921C236.125 23.7598 235.241 23.4436 234.16 23.4436C233.065 23.4436 232.166 23.7598 231.462 24.3921C230.758 25.0247 230.325 25.9066 230.161 27.0383Z" fill="white"/>
<path d="M221.692 34.6023C220.925 34.6023 220.333 34.3987 219.914 33.9919C219.51 33.5848 219.311 33.0272 219.311 32.3195V23.4535H215.29V21.6218H219.311V17.0028H221.471V21.6218H225.849V23.4535H221.471V32.0009C221.471 32.5319 221.737 32.7974 222.267 32.7974H225.247V34.6023H221.692Z" fill="white"/>
<path d="M207.077 34.6023V21.7486H209.161V23.3258H209.541C209.776 22.7649 210.137 22.3533 210.624 22.0904C211.11 21.8275 211.752 21.696 212.545 21.696H214.116V23.5887H212.411C211.454 23.5887 210.678 23.8514 210.083 24.3772C209.504 24.8855 209.216 25.6827 209.216 26.7691V34.6023H207.077Z" fill="white"/>
<path d="M196.548 34.6023C195.67 34.6023 194.87 34.4525 194.147 34.1528C193.424 33.8535 192.856 33.4207 192.443 32.8547C192.03 32.289 191.824 31.5982 191.824 30.7828C191.824 29.9508 192.03 29.2683 192.443 28.7359C192.856 28.1866 193.424 27.7788 194.147 27.5127C194.87 27.2297 195.679 27.0882 196.573 27.0882H200.832V26.1896C200.832 25.324 200.566 24.6418 200.032 24.1424C199.516 23.6433 198.742 23.3936 197.709 23.3936C196.694 23.3936 195.902 23.635 195.334 24.1175C194.767 24.5835 194.379 25.2158 194.173 26.0148L192.263 25.4156C192.469 24.7334 192.796 24.1175 193.244 23.5684C193.691 23.0024 194.285 22.5533 195.025 22.2204C195.782 21.8708 196.685 21.696 197.735 21.696C199.353 21.696 200.609 22.1038 201.504 22.9192C202.398 23.7182 202.846 24.8499 202.846 26.3144V31.8313C202.846 32.3306 203.087 32.5803 203.569 32.5803H204.73V34.2527H202.949C202.381 34.2527 201.925 34.1029 201.581 33.8035C201.237 33.4873 201.065 33.0711 201.065 32.5553V32.4305H200.755C200.566 32.7468 200.308 33.0794 199.981 33.429C199.671 33.7619 199.241 34.0366 198.69 34.2527C198.139 34.4857 197.425 34.6023 196.548 34.6023ZM196.78 32.9046C197.984 32.9046 198.957 32.5637 199.697 31.8812C200.454 31.1823 200.832 30.2088 200.832 28.9606V28.686H196.651C195.842 28.686 195.171 28.8607 194.637 29.2101C194.121 29.543 193.863 30.0507 193.863 30.7329C193.863 31.4154 194.13 31.9478 194.663 32.3306C195.214 32.7135 195.919 32.9046 196.78 32.9046Z" fill="white"/>
<path d="M176.571 34.6023V15.8295H178.617V23.5799H178.98C179.152 23.1868 179.411 22.8202 179.757 22.4804C180.119 22.1231 180.577 21.828 181.129 21.5955C181.699 21.3631 182.416 21.2468 183.279 21.2468C184.229 21.2468 185.075 21.4614 185.817 21.8906C186.577 22.3016 187.182 22.9096 187.631 23.7141C188.079 24.5009 188.304 25.4841 188.304 26.6641V34.6023H186.258V26.8251C186.258 25.5199 185.938 24.5724 185.299 23.9823C184.678 23.3924 183.832 23.0974 182.761 23.0974C181.535 23.0974 180.534 23.5087 179.757 24.331C178.997 25.1533 178.617 26.378 178.617 28.005V34.6023H176.571Z" fill="white"/>
<path d="M166.793 34.6023C164.764 34.6023 163.148 33.9835 161.947 32.7458C160.746 31.4906 160.145 29.6685 160.145 27.279V23.1531C160.145 20.7636 160.746 18.9498 161.947 17.7121C163.148 16.4571 164.764 15.8295 166.793 15.8295C168.806 15.8295 170.348 16.4228 171.42 17.6089C172.507 18.7951 173.051 20.4197 173.051 22.4825V22.6115H171.03V22.4051C171.03 21.047 170.681 19.9382 169.983 19.0788C169.301 18.2021 168.238 17.7637 166.793 17.7637C165.348 17.7637 164.22 18.2365 163.408 19.1819C162.596 20.1102 162.191 21.4167 162.191 23.1015V27.3306C162.191 29.0151 162.596 30.3302 163.408 31.2759C164.22 32.2042 165.348 32.6684 166.793 32.6684C168.238 32.6684 169.301 32.2385 169.983 31.3791C170.681 30.5022 171.03 29.3848 171.03 28.0267V27.614H173.051V27.9493C173.051 30.0124 172.507 31.6367 171.42 32.8229C170.348 34.0093 168.806 34.6023 166.793 34.6023Z" fill="white"/>
<path d="M143.132 34.6023C141.859 34.6023 140.731 34.3443 139.75 33.8285C138.787 33.3125 138.03 32.5886 137.479 31.6565C136.946 30.7079 136.679 29.5929 136.679 28.3114V27.9868C136.679 26.722 136.946 25.6153 137.479 24.6668C138.03 23.7182 138.787 22.9858 139.75 22.47C140.731 21.954 141.859 21.696 143.132 21.696C144.405 21.696 145.524 21.954 146.488 22.47C147.468 22.9858 148.226 23.7182 148.759 24.6668C149.31 25.6153 149.585 26.722 149.585 27.9868V28.3114C149.585 29.5929 149.31 30.7079 148.759 31.6565C148.226 32.5886 147.468 33.3125 146.488 33.8285C145.524 34.3443 144.405 34.6023 143.132 34.6023ZM143.132 32.8297C144.474 32.8297 145.541 32.4222 146.333 31.6065C147.142 30.7745 147.546 29.6595 147.546 28.2615V28.0368C147.546 26.6388 147.142 25.5321 146.333 24.7167C145.541 23.8847 144.474 23.4685 143.132 23.4685C141.807 23.4685 140.74 23.8847 139.931 24.7167C139.123 25.5321 138.718 26.6388 138.718 28.0368V28.2615C138.718 29.6595 139.123 30.7745 139.931 31.6065C140.74 32.4222 141.807 32.8297 143.132 32.8297Z" fill="white"/>
<path d="M130.636 34.6023C129.955 34.6023 129.429 34.3987 129.056 33.9919C128.699 33.5848 128.521 33.0272 128.521 32.3195V23.4535H124.946V21.6218H128.521V17.0028H130.442V21.6218H134.332V23.4535H130.442V32.0009C130.442 32.5319 130.677 32.7974 131.147 32.7974H133.798V34.6023H130.636Z" fill="white"/>
<path d="M109.693 40.4687V22.0699H111.673V24.2328H112.033C112.358 23.5743 112.881 22.9867 113.601 22.4706C114.338 21.9542 115.358 21.696 116.661 21.696C117.74 21.696 118.726 21.972 119.617 22.524C120.526 23.0579 121.245 23.8236 121.777 24.8204C122.325 25.8173 122.599 27.0189 122.599 28.4254V28.7726C122.599 30.1612 122.334 31.3628 121.802 32.3775C121.271 33.3924 120.551 34.1667 119.643 34.7009C118.752 35.2348 117.757 35.5019 116.661 35.5019C115.786 35.5019 115.041 35.3773 114.424 35.128C113.824 34.8968 113.335 34.5941 112.958 34.2202C112.581 33.8462 112.29 33.4637 112.084 33.0719H111.724V40.4687H109.693ZM116.12 33.6326C117.423 33.6326 118.477 33.2055 119.283 32.3508C120.106 31.4786 120.517 30.268 120.517 28.7192V28.4788C120.517 26.9299 120.106 25.7283 119.283 24.8739C118.477 24.0016 117.423 23.5654 116.12 23.5654C114.835 23.5654 113.772 24.0016 112.933 24.8739C112.11 25.7283 111.699 26.9299 111.699 28.4788V28.7192C111.699 30.268 112.11 31.4786 112.933 32.3508C113.772 33.2055 114.835 33.6326 116.12 33.6326Z" fill="white"/>
<path d="M96.1238 40.4687V38.5617H103.376C103.877 38.5617 104.127 38.2891 104.127 37.7441V32.8944H103.764C103.592 33.2759 103.324 33.6571 102.962 34.0387C102.616 34.402 102.159 34.7018 101.589 34.9377C101.019 35.1557 100.303 35.2647 99.439 35.2647C98.5239 35.2647 97.6779 35.0558 96.9008 34.6382C96.141 34.2203 95.5368 33.6026 95.0879 32.7853C94.6563 31.9681 94.4403 30.9688 94.4403 29.7882V21.696H96.4864V29.6247C96.4864 30.9325 96.7973 31.8863 97.419 32.4856C98.0578 33.0851 98.9124 33.3849 99.9831 33.3849C101.192 33.3849 102.185 32.967 102.962 32.1313C103.739 31.2959 104.127 30.0516 104.127 28.3986V21.696H106.173V38.1256C106.173 38.8523 105.975 39.4244 105.577 39.8422C105.198 40.2601 104.636 40.4687 103.894 40.4687H96.1238Z" fill="white"/>
<path d="M85.054 34.6023V21.7486H86.7912V23.3258H87.1071C87.3027 22.7649 87.6036 22.3533 88.0097 22.0904C88.4159 21.8275 88.9498 21.696 89.6117 21.696H90.9204V23.5887H89.4989C88.7017 23.5887 88.0548 23.8514 87.5585 24.3772C87.077 24.8855 86.8365 25.6827 86.8365 26.7691V34.6023H85.054Z" fill="white"/>
<path d="M74.7067 34.6023C72.493 34.6023 70.7309 33.9835 69.4204 32.7458C68.1099 31.4906 67.4545 29.6685 67.4545 27.279V23.1531C67.4545 20.7636 68.1099 18.9498 69.4204 17.7121C70.7309 16.4571 72.493 15.8295 74.7067 15.8295C76.9027 15.8295 78.5851 16.4228 79.754 17.6089C80.9406 18.7951 81.5341 20.4197 81.5341 22.4825V22.6115H79.329V22.4051C79.329 21.047 78.9482 19.9382 78.1869 19.0788C77.443 18.2021 76.2829 17.7637 74.7067 17.7637C73.1307 17.7637 71.8998 18.2365 71.0141 19.1819C70.1286 20.1102 69.6859 21.4167 69.6859 23.1015V27.3306C69.6859 29.0151 70.1286 30.3302 71.0141 31.2759C71.8998 32.2042 73.1307 32.6684 74.7067 32.6684C76.2829 32.6684 77.443 32.2385 78.1869 31.3791C78.9482 30.5022 79.329 29.3848 79.329 28.0267V27.614H81.5341V27.9493C81.5341 30.0124 80.9406 31.6367 79.754 32.8229C78.5851 34.0093 76.9027 34.6023 74.7067 34.6023Z" fill="white"/>
</svg>
