<svg width="53" height="53" viewBox="0 0 53 53" fill="none" xmlns="http://www.w3.org/2000/svg">
<path d="M52.2304 25.8266C52.0841 25.4745 51.837 25.1736 51.5201 24.9614C51.2034 24.7492 50.8306 24.6354 50.4494 24.6343C49.152 24.861 47.8787 25.2084 46.6461 25.6723C46.5741 25.6999 46.4957 25.7076 46.4195 25.6942C46.3431 25.6816 46.2703 25.6521 46.2068 25.6077C46.1438 25.5631 46.0925 25.504 46.0574 25.4348C46.023 25.3651 46.005 25.2882 46.0042 25.2102C46.006 25.1348 45.9918 25.0597 45.9629 24.9898C45.934 24.9198 45.8909 24.8568 45.8364 24.8044C45.784 24.7502 45.7213 24.7071 45.6519 24.678C45.5824 24.6488 45.5078 24.6338 45.4324 24.6343H43.6862C43.5079 23.0298 43.1023 21.4589 42.4818 19.9687C41.8677 18.4765 41.0423 17.0803 40.0304 15.8232L41.2681 14.5912C41.3223 14.5378 41.3657 14.474 41.3951 14.4035C41.4245 14.3331 41.4398 14.2577 41.4398 14.1813C41.4398 14.1052 41.4245 14.0295 41.3951 13.9593C41.3657 13.8888 41.3223 13.8251 41.2681 13.7717C41.2222 13.7262 41.186 13.6723 41.1618 13.6124C41.1375 13.5528 41.1254 13.489 41.1264 13.4245C41.1228 13.3334 41.1465 13.2435 41.1945 13.1661C41.2428 13.0889 41.313 13.0277 41.3964 12.9908C42.821 12.2825 44.4216 11.4403 44.8176 11.042C44.9921 10.8628 45.1294 10.6507 45.2216 10.4181C45.3168 10.1858 45.3648 9.93695 45.3633 9.68579C45.3615 9.43489 45.3098 9.18683 45.2115 8.95581C45.117 8.72427 44.9769 8.5139 44.7998 8.33734C44.5334 8.06889 44.194 7.88485 43.8236 7.80767C43.4531 7.73075 43.0685 7.76405 42.717 7.90369C42.4836 7.99739 42.2699 8.13446 42.0879 8.30766C41.6904 8.70569 40.8523 10.3081 40.1393 11.7343C40.1027 11.8011 40.0521 11.8595 39.9914 11.9057C39.9284 11.9514 39.8556 11.9816 39.7787 11.9942C39.7036 12.0061 39.6267 11.9999 39.5542 11.9764C39.4819 11.9516 39.4161 11.9106 39.3616 11.8566C39.3079 11.8029 39.2439 11.7603 39.1734 11.7317C39.103 11.7033 39.0273 11.6891 38.9514 11.6904C38.8745 11.6891 38.7984 11.703 38.7274 11.7317C38.6561 11.7603 38.5914 11.8029 38.5369 11.8566L37.3049 13.0936C36.0431 12.0858 34.6464 11.2598 33.1552 10.6403C31.6646 10.0201 30.0931 9.61455 28.4883 9.43618V7.69487C28.4888 7.61898 28.4744 7.54361 28.4457 7.47314C28.4171 7.40293 28.375 7.33892 28.3216 7.28471C28.2679 7.23076 28.2044 7.18791 28.1344 7.15875C28.0642 7.12932 27.9891 7.11409 27.913 7.11383H27.9096C27.8342 7.11512 27.7596 7.09757 27.6928 7.06298C27.6234 7.02813 27.5632 6.97728 27.517 6.91482C27.4734 6.85338 27.445 6.78266 27.4342 6.70806C27.4225 6.63114 27.4285 6.55267 27.452 6.47859C27.9184 5.24681 28.2661 3.97348 28.4904 2.67563C28.4907 2.42318 28.4411 2.17306 28.3446 1.93971C28.2467 1.70611 28.1042 1.49393 27.9251 1.31479C27.701 1.09074 27.4254 0.925278 27.1221 0.833127C26.8188 0.741028 26.4974 0.725205 26.1866 0.786923C25.8758 0.848873 25.5849 0.986196 25.34 1.18728C25.095 1.38836 24.9035 1.647 24.7822 1.93971C24.6859 2.17306 24.6363 2.42318 24.6363 2.67563C24.8606 3.97348 25.2086 5.24681 25.675 6.47859C25.698 6.55267 25.7042 6.63114 25.6926 6.70806C25.6799 6.78317 25.6495 6.85416 25.6035 6.91482C25.5602 6.97832 25.501 7.02942 25.4319 7.06298C25.3635 7.09705 25.2881 7.11461 25.2117 7.11383C25.1355 7.11409 25.0604 7.12932 24.9905 7.15875C24.9203 7.18791 24.8568 7.23076 24.8033 7.28471C24.7499 7.33892 24.7076 7.40293 24.6789 7.47314C24.6503 7.54361 24.6358 7.61898 24.6363 7.69487V9.43902C23.0316 9.61739 21.4604 10.0229 19.9694 10.6432C18.4971 11.2469 17.1187 12.058 15.8758 13.0517L14.6317 11.8099C14.5191 11.6974 14.3356 11.6896 14.1763 11.6896C14.0999 11.6881 14.0243 11.702 13.9538 11.7309C13.8831 11.7598 13.8193 11.8029 13.7659 11.8574C13.7135 11.9142 13.6472 11.9557 13.5733 11.9787C13.4993 12.0045 13.4198 12.0118 13.3423 11.9991C13.2667 11.9862 13.1952 11.9557 13.1332 11.9106C13.071 11.8649 13.0212 11.8047 12.9882 11.7348C12.2796 10.3089 11.4386 8.70646 11.0411 8.30843C10.8612 8.12852 10.6472 7.98604 10.4121 7.88898C10.1782 7.79296 9.92783 7.74495 9.67513 7.74727C9.29284 7.74624 8.91908 7.85904 8.60107 8.07122C8.28306 8.2834 8.03552 8.5854 7.88993 8.93878C7.79159 9.17212 7.74126 9.42302 7.74177 9.67624C7.74229 9.92869 7.79236 10.1786 7.88993 10.4116C7.98441 10.6468 8.12715 10.8595 8.30913 11.0358C8.70587 11.4338 10.3021 12.2732 11.7326 12.9846C11.8013 13.0184 11.8609 13.0685 11.9061 13.1305C11.9521 13.1935 11.9823 13.2662 11.9949 13.3429C12.0073 13.4191 12.0014 13.4973 11.9771 13.5703C11.9531 13.6439 11.9128 13.7113 11.8589 13.7668C11.8039 13.8191 11.7603 13.8827 11.7314 13.9529C11.7022 14.0231 11.6877 14.0987 11.6895 14.1746C11.6877 14.2513 11.7019 14.3274 11.7311 14.3981C11.7603 14.4691 11.8036 14.5331 11.8589 14.5863L13.0943 15.8217C12.0845 17.0803 11.2592 18.4762 10.6431 19.9674C10.0251 21.4586 9.61963 23.0291 9.43868 24.633H7.69273C7.6171 24.6323 7.54224 24.6472 7.47255 24.6764C7.4026 24.7056 7.33961 24.7487 7.28695 24.8029C7.2312 24.8548 7.18732 24.9178 7.15737 24.9877C7.12743 25.0577 7.11246 25.1328 7.11323 25.2089C7.1153 25.3377 7.06651 25.4624 6.9772 25.5553C6.93281 25.601 6.87937 25.6372 6.82026 25.6614C6.76141 25.6857 6.69817 25.6978 6.63441 25.697C6.58072 25.6963 6.52755 25.6867 6.47696 25.6686C5.24596 25.2045 3.97366 24.8571 2.67735 24.6307C2.42362 24.6302 2.17246 24.6805 1.9386 24.7789C1.70396 24.8759 1.49127 25.0184 1.31213 25.1983C1.13247 25.3762 0.991022 25.5886 0.89629 25.823C0.750965 26.1748 0.712764 26.5618 0.786846 26.9353C0.860669 27.3085 1.04368 27.6518 1.31213 27.9213C1.49127 28.1012 1.70396 28.2437 1.93834 28.341C2.17246 28.4383 2.42387 28.4882 2.67735 28.4882C3.97392 28.2623 5.24596 27.9149 6.47696 27.4502C6.55001 27.4262 6.62796 27.4203 6.70385 27.4327C6.78051 27.4427 6.85356 27.4717 6.91629 27.5168C6.9785 27.563 7.02909 27.6229 7.06445 27.6918C7.09852 27.7605 7.11607 27.8361 7.11556 27.9128C7.11478 27.9889 7.12976 28.0643 7.1597 28.134C7.18938 28.204 7.23352 28.2669 7.28902 28.3188C7.34167 28.373 7.40492 28.4159 7.47461 28.445C7.54431 28.4742 7.61942 28.4889 7.69505 28.4882H9.43714C9.79851 31.7121 11.0641 34.7681 13.0881 37.3036L11.8589 38.5419C11.8039 38.5948 11.7605 38.6583 11.7308 38.7288C11.7014 38.799 11.6867 38.8746 11.6872 38.9507C11.6859 39.0269 11.7006 39.1028 11.7301 39.173C11.7597 39.2435 11.8034 39.307 11.8589 39.3594C11.9128 39.4146 11.9531 39.4814 11.9771 39.555C12.0014 39.6278 12.0073 39.7052 11.9949 39.7809C11.9833 39.8573 11.9541 39.9301 11.9097 39.9936C11.8622 40.0545 11.8016 40.1043 11.7326 40.1394C10.3021 40.8477 8.70587 41.6902 8.30913 42.0875C8.12715 42.264 7.98415 42.477 7.88993 42.7124C7.78926 42.9463 7.73841 43.1982 7.74022 43.4527C7.73867 43.7057 7.78797 43.9566 7.88555 44.1902C7.9826 44.4256 8.12535 44.6393 8.30578 44.8192C8.6687 45.1816 9.16043 45.385 9.67332 45.385C10.1862 45.385 10.6782 45.1816 11.0411 44.8192C11.4386 44.4209 12.2768 42.8229 12.9882 41.3926C13.0209 41.3227 13.071 41.2623 13.1332 41.2168C13.1949 41.1709 13.2667 41.1407 13.3423 41.1283C13.4198 41.1156 13.4993 41.1224 13.5733 41.1482C13.6469 41.1714 13.7135 41.2135 13.7659 41.27C13.8188 41.3252 13.8826 41.3691 13.9533 41.3985C14.0238 41.428 14.0997 41.4427 14.1763 41.4414C14.2522 41.4427 14.3273 41.428 14.3973 41.3985C14.4672 41.3689 14.5302 41.3252 14.5821 41.27L15.8198 40.0325C18.3536 42.0604 21.4108 43.328 24.6363 43.6879V45.4325C24.6358 45.5087 24.6503 45.5838 24.6792 45.654C24.7078 45.7245 24.7502 45.7882 24.8036 45.8422C24.857 45.8961 24.9205 45.939 24.9905 45.9681C25.0607 45.9976 25.1358 46.0125 25.2117 46.0128C25.2754 46.0112 25.3389 46.0229 25.3981 46.0474C25.4572 46.0716 25.5106 46.1083 25.5545 46.1545C25.6007 46.1981 25.6373 46.2508 25.6629 46.3089C25.6882 46.3669 25.7019 46.4297 25.7026 46.4932C25.6983 46.5456 25.689 46.5974 25.675 46.6483C25.2091 47.8801 24.8612 49.1534 24.6363 50.451C24.6361 50.704 24.6856 50.9543 24.7824 51.1879C24.879 51.4215 25.0207 51.6337 25.1996 51.8126C25.3769 51.9928 25.5896 52.1345 25.8245 52.2284C26.2968 52.4238 26.8278 52.4238 27.3002 52.2284C27.5358 52.135 27.7496 51.9933 27.9272 51.8126C28.106 51.6337 28.2478 51.4215 28.3446 51.1879C28.4411 50.9543 28.4907 50.704 28.4904 50.451C28.2658 49.1524 27.9181 47.8783 27.452 46.6455C27.4287 46.5729 27.4225 46.4963 27.4339 46.4211C27.4452 46.346 27.4736 46.2743 27.517 46.2118C27.5619 46.1483 27.6223 46.0977 27.6928 46.0647C27.7596 46.0296 27.834 46.0118 27.9096 46.0128C28.0632 46.012 28.2103 45.9506 28.319 45.8419C28.4279 45.7332 28.4894 45.5864 28.4904 45.4325V43.6879C31.7157 43.3298 34.7729 42.064 37.3069 40.0374L38.5369 41.2708C38.5901 41.3252 38.6538 41.3683 38.7243 41.397C38.7948 41.4259 38.8701 41.4401 38.9463 41.4386C39.0229 41.4398 39.0988 41.4256 39.1698 41.3967C39.2405 41.3681 39.3048 41.325 39.3588 41.2708C39.4106 41.2132 39.4772 41.1711 39.5513 41.1489C39.6241 41.1231 39.7021 41.1164 39.7782 41.1291C39.8551 41.1404 39.9282 41.1709 39.9907 41.2176C40.0534 41.2635 40.1042 41.3237 40.1388 41.3934C40.8515 42.8237 41.6896 44.4217 42.0871 44.82C42.2665 45.0017 42.4805 45.1463 42.7162 45.2449C42.9498 45.3486 43.2017 45.4036 43.4573 45.4072C43.7138 45.4093 43.9684 45.3613 44.2061 45.2655C44.4431 45.1664 44.6581 45.0216 44.8388 44.8394C45.0194 44.6569 45.1622 44.4405 45.259 44.2028C45.3558 43.9664 45.4046 43.7132 45.4025 43.4579C45.4004 43.2023 45.3475 42.9499 45.2469 42.7152C45.1446 42.4811 44.998 42.2689 44.8155 42.0903C44.4193 41.6931 42.8189 40.8529 41.3941 40.1422C41.3252 40.1071 41.2648 40.0573 41.217 39.9964C41.1729 39.9329 41.1437 39.8601 41.1321 39.7837C41.1184 39.7081 41.1246 39.6304 41.1496 39.5579C41.1736 39.4843 41.2142 39.4174 41.2681 39.3622C41.3763 39.2535 41.4377 39.1069 41.4395 38.9536C41.4537 38.7948 41.4444 38.5992 41.3262 38.4859L40.0841 37.244C41.0768 36.006 41.885 34.631 42.4839 33.1615C43.1018 31.6701 43.5073 30.0994 43.6883 28.4951H45.4304C45.5058 28.4959 45.5804 28.4812 45.6498 28.452C45.7192 28.4228 45.7819 28.38 45.8344 28.3258C45.8888 28.2734 45.9317 28.2104 45.9606 28.1405C45.9895 28.0705 46.0037 27.9956 46.0021 27.92C46.0019 27.8557 46.0143 27.7922 46.0385 27.7329C46.0628 27.6732 46.0987 27.6193 46.1438 27.5736C46.189 27.5282 46.2427 27.4918 46.3021 27.467C46.3612 27.4422 46.4247 27.4293 46.4889 27.4291C46.5413 27.4296 46.5935 27.4391 46.6425 27.4575C47.8751 27.9216 49.1484 28.269 50.4458 28.4951C50.763 28.4959 51.0756 28.4179 51.3556 28.2687C51.6355 28.1193 51.8742 27.9032 52.0505 27.6394C52.2268 27.3756 52.3352 27.0723 52.3659 26.7566C52.3967 26.4407 52.3489 26.1224 52.2271 25.8295L52.2304 25.8266ZM26.5635 40.5532C18.8368 40.5532 12.5723 34.29 12.5723 26.5628C12.5723 18.8353 18.8368 12.5737 26.5635 12.5737C34.2902 12.5737 40.5547 18.8368 40.5547 26.5633C40.5547 34.29 34.2902 40.5532 26.5635 40.5532Z" fill="white"/>
</svg>
